<?xml version="1.0" standalone="no"?>
<!DOCTYPE svg PUBLIC "-//W3C//DTD SVG 20010904//EN"
 "http://www.w3.org/TR/2001/REC-SVG-20010904/DTD/svg10.dtd">
<svg version="1.0" xmlns="http://www.w3.org/2000/svg"
 width="512.000000pt" height="512.000000pt" viewBox="0 0 512.000000 512.000000"
 preserveAspectRatio="xMidYMid meet">
<metadata>
Created by potrace 1.11, written by Peter Selinger 2001-2013
</metadata>
<g transform="translate(0.000000,512.000000) scale(0.100000,-0.100000)"
fill="#000000" stroke="none">
<path d="M190 5103 c-28 -10 -66 -37 -101 -72 -98 -99 -89 162 -89 -2471 0
-2633 -9 -2372 89 -2471 98 -98 -105 -89 2031 -89 2136 0 1933 -9 2031 89 90
90 89 84 89 571 l0 417 -24 26 c-44 48 -108 48 -152 0 l-24 -26 0 -389 c0
-437 -1 -447 -64 -473 -53 -22 -3659 -22 -3712 0 -69 29 -64 -157 -64 2345 0
2502 -5 2316 64 2345 53 22 3659 22 3712 0 65 -27 64 -19 64 -648 l0 -564 24
-26 c44 -48 108 -48 152 0 l24 26 0 592 c0 684 4 653 -89 746 -98 98 105 89
-2035 88 -1691 0 -1886 -2 -1926 -16z"/>
<path d="M1975 4574 c-16 -3 -68 -17 -115 -31 -306 -91 -528 -315 -627 -628
-26 -84 -28 -101 -27 -255 0 -150 3 -173 27 -253 94 -305 313 -531 607 -625
179 -57 381 -57 560 0 251 80 446 254 560 501 66 144 75 191 74 382 0 159 -2
176 -28 255 -104 313 -313 524 -620 622 -80 26 -108 30 -236 33 -80 2 -158 1
-175 -1z m315 -220 c249 -56 466 -274 526 -532 21 -89 20 -239 -2 -327 -17
-70 -70 -192 -99 -230 -15 -19 -17 -18 -67 38 -55 63 -128 122 -194 155 l-41
21 31 63 c30 60 31 67 31 193 0 118 -2 135 -25 180 -32 65 -103 141 -160 170
-144 73 -320 46 -426 -67 -85 -90 -107 -158 -102 -310 3 -92 6 -111 34 -166
l31 -63 -41 -21 c-66 -33 -139 -92 -194 -155 -50 -56 -52 -57 -67 -38 -29 38
-82 160 -99 230 -22 89 -23 238 -2 330 36 151 138 308 263 402 176 134 379
176 603 127z m-100 -452 c67 -33 99 -113 85 -214 -13 -96 -101 -158 -192 -137
-55 12 -108 72 -117 132 -20 134 47 237 154 237 19 0 51 -8 70 -18z m80 -592
c102 -30 209 -109 260 -192 l19 -31 -46 -30 c-231 -146 -535 -146 -765 0 -41
26 -44 31 -34 49 45 79 142 160 233 194 112 42 212 45 333 10z"/>
<path d="M4614 3865 c-101 -22 -198 -83 -252 -159 -44 -61 -1291 -2225 -1297
-2250 -3 -11 -25 -202 -50 -423 -30 -274 -42 -410 -36 -426 14 -37 59 -67 100
-67 32 0 78 31 371 247 184 135 341 253 347 262 25 32 1267 2187 1292 2241 48
105 38 270 -22 370 -96 160 -279 243 -453 205z m151 -206 c26 -7 56 -28 86
-59 84 -86 84 -172 -2 -321 -27 -49 -54 -91 -58 -93 -6 -4 -343 185 -365 204
-11 10 93 186 131 222 53 51 131 68 208 47z m-258 -558 l180 -103 -501 -869
c-276 -478 -504 -869 -507 -869 -8 0 -349 196 -361 208 -7 7 507 909 954 1675
22 38 43 67 47 65 5 -2 89 -50 188 -107z m-1114 -1920 l137 -78 -157 -116
c-87 -64 -160 -111 -161 -106 -6 15 35 379 42 379 1 0 64 -35 139 -79z"/>
<path d="M747 2396 c-101 -93 32 -239 134 -148 69 61 24 172 -70 172 -26 0
-46 -7 -64 -24z"/>
<path d="M1169 2391 c-23 -23 -29 -38 -29 -71 0 -33 6 -48 29 -71 l29 -29 752
0 752 0 29 29 c41 41 41 101 0 142 l-29 29 -752 0 -752 0 -29 -29z"/>
<path d="M747 1836 c-101 -93 32 -239 134 -148 69 61 24 172 -70 172 -26 0
-46 -7 -64 -24z"/>
<path d="M1169 1831 c-23 -23 -29 -38 -29 -71 0 -33 6 -48 29 -71 l29 -29 752
0 752 0 29 29 c41 41 41 101 0 142 l-29 29 -752 0 -752 0 -29 -29z"/>
<path d="M747 1276 c-101 -93 32 -239 134 -148 69 61 24 172 -70 172 -26 0
-46 -7 -64 -24z"/>
<path d="M1169 1271 c-23 -23 -29 -38 -29 -71 0 -33 6 -48 29 -71 l29 -29 752
0 752 0 29 29 c41 41 41 101 0 142 l-29 29 -752 0 -752 0 -29 -29z"/>
<path d="M2049 711 c-23 -23 -29 -38 -29 -71 0 -33 6 -48 29 -71 l29 -29 312
0 312 0 29 29 c23 23 29 38 29 71 0 33 -6 48 -29 71 l-29 29 -312 0 -312 0
-29 -29z"/>
</g>
</svg>
