<?xml version="1.0" standalone="no"?>
<!DOCTYPE svg PUBLIC "-//W3C//DTD SVG 20010904//EN"
 "http://www.w3.org/TR/2001/REC-SVG-20010904/DTD/svg10.dtd">
<svg version="1.0" xmlns="http://www.w3.org/2000/svg"
 width="360.000000pt" height="360.000000pt" viewBox="0 0 360.000000 360.000000"
 preserveAspectRatio="xMidYMid meet">
<metadata>
Created by potrace 1.11, written by Peter Selinger 2001-2013
</metadata>
<g transform="translate(0.000000,360.000000) scale(0.100000,-0.100000)"
fill="#000000" stroke="none">
<path d="M757 3590 c-225 -38 -436 -166 -572 -345 -84 -112 -146 -251 -172
-390 -10 -48 -11 -2029 -1 -2100 7 -62 49 -188 85 -258 105 -208 291 -371 513
-449 132 -47 153 -47 1225 -45 556 2 1021 6 1034 10 111 31 144 43 201 68 56
26 156 83 170 99 3 3 26 22 52 43 116 93 236 289 281 457 l22 85 0 1025 c0
564 -4 1043 -8 1065 -48 246 -188 460 -389 592 -95 63 -173 97 -289 127 l-94
25 -1005 -1 c-553 0 -1027 -4 -1053 -8z"/>
</g>
</svg>
